<?xml version="1.0" encoding="UTF-8" standalone="no"?>
<svg
   xmlns:dc="http://purl.org/dc/elements/1.1/"
   xmlns:cc="http://creativecommons.org/ns#"
   xmlns:rdf="http://www.w3.org/1999/02/22-rdf-syntax-ns#"
   xmlns:svg="http://www.w3.org/2000/svg"
   xmlns="http://www.w3.org/2000/svg"
   xmlns:sodipodi="http://sodipodi.sourceforge.net/DTD/sodipodi-0.dtd"
   xmlns:inkscape="http://www.inkscape.org/namespaces/inkscape"
   version="1.1"
   x="0px"
   y="0px"
   viewBox="0 0 89.649002 89.999138"
   enable-background="new 0 0 100 100"
   xml:space="preserve"
   id="svg26"
   sodipodi:docname="noun_volley ball_2411186.svg"
   inkscape:version="0.92.3 (2405546, 2018-03-11)"
   width="89.649002"
   height="89.999138"><metadata
     id="metadata32"><rdf:RDF><cc:Work
         rdf:about=""><dc:format>image/svg+xml</dc:format><dc:type
           rdf:resource="http://purl.org/dc/dcmitype/StillImage" /></cc:Work></rdf:RDF></metadata><defs
     id="defs30" /><sodipodi:namedview
     pagecolor="#ffffff"
     bordercolor="#666666"
     borderopacity="1"
     objecttolerance="10"
     gridtolerance="10"
     guidetolerance="10"
     inkscape:pageopacity="0"
     inkscape:pageshadow="2"
     inkscape:window-width="774"
     inkscape:window-height="480"
     id="namedview28"
     showgrid="false"
     inkscape:zoom="1.888"
     inkscape:cx="44.825"
     inkscape:cy="32.499"
     inkscape:window-x="730"
     inkscape:window-y="190"
     inkscape:window-maximized="0"
     inkscape:current-layer="svg26" /><g
     id="g20"
     transform="translate(-5.175,-4.9998618)">
    <path d="M 34.525,78.563 C 28.845,67.152 27.651,54.247 31.142,42.772 27.297,42.058 23.363,41.916 19.63,42.356 13.433,63.378 20.599,83.677 37.715,93.287 41.088,94.256 44.55,94.831 48.03,94.999 42.787,91.244 37.952,85.446 34.525,78.563 Z" id="path2" inkscape:connector-curvature="0" />
    <path d="m 61.938,83.89 c 2.776,2.778 5.958,4.87 9.38,5.945 3.874,-2.049 7.51,-4.699 10.767,-7.956 C 89.061,74.903 93.462,66.041 94.824,56.443 89.383,69.434 77.598,79.526 61.938,83.89 Z" id="path4" inkscape:connector-curvature="0" />
    <path d="M 66.095,92.173 C 62.551,90.309 59.328,87.567 56.589,84.233 56.44,84.093 56.31,83.932 56.206,83.751 52.941,79.645 50.395,74.708 48.839,69.475 48.765,69.313 48.703,69.144 48.671,68.961 48.667,68.938 48.67,68.915 48.666,68.892 46.98,62.917 46.596,56.595 47.912,50.715 c -3.5,-3.204 -7.931,-5.536 -12.687,-6.958 -4.477,14.227 -0.076,26.652 3.053,32.938 4.418,8.876 11.269,15.693 17.977,17.949 3.344,-0.448 6.645,-1.274 9.84,-2.471 z" id="path6" inkscape:connector-curvature="0" />
    <path d="M 33.532,8.186 C 47.493,6.417 62.113,11.582 73.711,22.955 74.737,19.061 74.912,15.247 74.167,11.866 61.905,4.173 46.725,2.942 33.532,8.186 Z" id="path8" inkscape:connector-curvature="0" />
    <path d="m 82.085,18.166 c -1.055,-1.055 -2.152,-2.043 -3.282,-2.971 0.273,6.454 -1.835,13.536 -6.107,20.113 -5.169,7.959 -12.663,13.863 -20.709,16.377 -1.023,4.627 -0.829,9.623 0.314,14.448 14.554,-3.24 23.125,-13.246 27.002,-19.097 5.489,-8.282 7.967,-17.644 6.548,-24.585 -1.159,-1.492 -2.408,-2.928 -3.766,-4.285 z" id="path10" inkscape:connector-curvature="0" />
    <path d="m 53.492,70.177 c 1.305,3.687 3.149,7.166 5.397,10.177 21.348,-5.155 35.36,-21.567 35.065,-41.25 -0.838,-3.382 -2.074,-6.639 -3.668,-9.725 -0.621,6.435 -3.229,13.545 -7.489,19.972 -7.042,10.625 -17.622,18.111 -29.305,20.826 z" id="path12" inkscape:connector-curvature="0" />
    <path d="M 33.104,26.336 C 23.16,25.721 13.791,28.271 8.497,32.995 7.23,36.101 6.32,39.352 5.776,42.698 9.157,40.56 13.138,39.14 17.39,38.431 c 0.197,-0.063 0.403,-0.091 0.614,-0.093 5.197,-0.779 10.757,-0.516 16.076,0.755 0.176,0.017 0.353,0.047 0.526,0.111 0.022,0.008 0.041,0.021 0.063,0.03 6.018,1.527 11.686,4.356 16.119,8.436 4.436,-1.394 8.691,-3.977 12.393,-7.456 C 53.093,29.195 40.119,26.77 33.104,26.336 Z" id="path14" inkscape:connector-curvature="0" />
    <path d="M 22.339,85.393 C 13.833,74.189 10.998,58.954 15.043,43.229 c -3.788,1.014 -7.186,2.72 -9.827,5.142 -0.02,0.549 -0.041,1.099 -0.041,1.652 0,12.034 4.687,23.348 13.195,31.857 1.267,1.266 2.597,2.43 3.969,3.513 z" id="path16" inkscape:connector-curvature="0" />
    <path d="m 33.362,22.153 c 12.744,0.787 24.536,6.222 32.73,15.009 1.105,-1.296 2.141,-2.676 3.089,-4.137 1.193,-1.837 2.199,-3.732 3.01,-5.642 C 57.083,11.484 35.906,7.53 19.013,17.555 c -0.213,0.205 -0.432,0.4 -0.642,0.61 -2.3,2.3 -4.311,4.812 -6.036,7.481 5.88,-2.675 13.335,-3.971 21.027,-3.493 z" id="path18" inkscape:connector-curvature="0" />
</g>
</svg>