<?xml version="1.0" encoding="UTF-8" standalone="no"?>
<svg
   xmlns:dc="http://purl.org/dc/elements/1.1/"
   xmlns:cc="http://creativecommons.org/ns#"
   xmlns:rdf="http://www.w3.org/1999/02/22-rdf-syntax-ns#"
   xmlns:svg="http://www.w3.org/2000/svg"
   xmlns="http://www.w3.org/2000/svg"
   xmlns:sodipodi="http://sodipodi.sourceforge.net/DTD/sodipodi-0.dtd"
   xmlns:inkscape="http://www.inkscape.org/namespaces/inkscape"
   viewBox="0 0 89.540001 89.540001"
   x="0px"
   y="0px"
   version="1.1"
   id="svg12"
   sodipodi:docname="noun_pattern_796188.svg"
   inkscape:version="0.92.3 (2405546, 2018-03-11)"
   width="89.540001"
   height="89.540001">
  <metadata
     id="metadata18">
    <rdf:RDF>
      <cc:Work
         rdf:about="">
        <dc:format>image/svg+xml</dc:format>
        <dc:type
           rdf:resource="http://purl.org/dc/dcmitype/StillImage" />
      </cc:Work>
    </rdf:RDF>
  </metadata>
  <defs
     id="defs16" />
  <sodipodi:namedview
     pagecolor="#ffffff"
     bordercolor="#666666"
     borderopacity="1"
     objecttolerance="10"
     gridtolerance="10"
     guidetolerance="10"
     inkscape:pageopacity="0"
     inkscape:pageshadow="2"
     inkscape:window-width="1920"
     inkscape:window-height="1015"
     id="namedview14"
     showgrid="false"
     inkscape:zoom="1.888"
     inkscape:cx="-46.331695"
     inkscape:cy="32.27"
     inkscape:window-x="0"
     inkscape:window-y="0"
     inkscape:window-maximized="1"
     inkscape:current-layer="svg12" />
  <title
     id="title2">japanese pack</title>
  <g
     data-name="Your Icon"
     id="g6"
     transform="translate(-5.23,-5.23)">
    <path
       d="M 50,5.23 A 44.77,44.77 0 1 0 94.77,50 44.82,44.82 0 0 0 50,5.23 Z m 0,3.93 a 40.92,40.92 0 0 1 39.88,32 A 32.32,32.32 0 0 0 52,57.47 c -0.74,-0.05 -1.48,-0.08 -2.21,-0.08 -0.73,0 -1.21,0 -1.85,0.06 A 32.48,32.48 0 0 0 19.16,39.83 32.15,32.15 0 0 0 10.16,41.12 40.92,40.92 0 0 1 50,9.15 Z M 9.15,50 a 41,41 0 0 1 0.38,-5.53 29.13,29.13 0 0 1 9.63,-1.64 29.47,29.47 0 0 1 25.56,15 31.94,31.94 0 0 0 -8.36,2.52 Q 35.98,59.81 35.58,59.29 L 35.33,59 c -0.2,-0.24 -0.39,-0.48 -0.6,-0.71 l -0.34,-0.36 c -0.19,-0.2 -0.37,-0.4 -0.57,-0.59 L 33.43,56.98 32.86,56.46 32.44,56.11 31.85,55.64 31.4,55.31 30.8,54.89 30.32,54.58 29.7,54.2 29.2,53.92 28.56,53.58 28,53.27 27.34,52.97 26.81,52.75 26.13,52.49 25.59,52.3 24.88,52.09 24.34,51.94 23.6,51.77 23.06,51.65 22.28,51.52 21.77,51.44 20.89,51.35 h -0.44 c -0.44,0 -0.88,0 -1.32,0 -0.44,0 -0.81,0 -1.22,0 H 17.7 q -0.59,0 -1.17,0.11 h -0.21 q -0.55,0.07 -1.09,0.18 h -0.14 c -0.38,0.08 -0.76,0.16 -1.14,0.26 L 13.7,52 c -0.38,0.1 -0.75,0.21 -1.12,0.33 l -0.15,0.05 q -0.51,0.17 -1,0.38 l -0.19,0.08 q -0.54,0.22 -1.06,0.47 L 9.96,53.42 9.34,53.74 C 9.21,52.5 9.15,51.26 9.15,50 Z M 12.3,65.72 A 40.5,40.5 0 0 1 9.75,57 c 0.22,-0.14 0.44,-0.28 0.67,-0.41 h 0.08 q 0.52,-0.29 1.06,-0.55 v 0 c 0.36,-0.17 0.72,-0.32 1.09,-0.46 l 0.13,-0.05 c 0.36,-0.13 0.72,-0.26 1.08,-0.37 l 0.18,-0.05 q 0.54,-0.16 1.09,-0.28 h 0.19 q 0.55,-0.12 1.11,-0.2 h 0.17 c 0.38,-0.05 0.77,-0.1 1.16,-0.13 h 0.12 c 0.41,0 0.82,0 1.24,0 0.42,0 0.75,0 1.12,0 h 0.37 l 0.74,0.07 0.43,0.07 0.66,0.11 0.46,0.1 0.63,0.15 H 24 l 0.6,0.18 0.45,0.16 0.59,0.22 0.44,0.18 0.57,0.26 0.43,0.2 0.57,0.3 0.4,0.22 0.58,0.35 0.36,0.23 0.62,0.43 0.28,0.2 q 0.44,0.33 0.86,0.69 v 0 q 0.41,0.35 0.81,0.74 l 0.25,0.26 0.52,0.54 0.28,0.32 0.44,0.52 0.28,0.36 0.26,0.36 c -0.37,0.21 -0.73,0.44 -1.1,0.66 l -0.29,0.18 -0.94,0.63 -0.24,0.16 q -0.55,0.39 -1.09,0.81 l -0.23,0.19 -0.87,0.71 -0.26,0.22 q -0.51,0.44 -1,0.91 l -0.16,0.15 -0.55,0.53 A 9.38,9.38 0 0 0 12.3,65.72 Z m 1.42,3 a 6.36,6.36 0 0 1 5.44,-3 6.41,6.41 0 0 1 1.48,12.64 41.06,41.06 0 0 1 -6.92,-9.6 z m 42.57,21.6 A 41,41 0 0 1 43.4,90.27 c 0,-0.2 0,-0.41 0,-0.61 a 6.4,6.4 0 0 1 4.87,-6.22 h 0.21 a 5.79,5.79 0 0 1 2.79,0 h 0.21 a 6.35,6.35 0 0 1 4.84,6.88 z m 3,-0.59 c 0,0 0,0 0,-0.07 A 9.4,9.4 0 0 0 51.54,80.4 v 0 a 9.6,9.6 0 0 0 -1.19,-0.13 h -1.03 a 9.6,9.6 0 0 0 -1.19,0.13 v 0 a 9.4,9.4 0 0 0 -7.75,9.26 40.53,40.53 0 0 1 -8.2,-3 17.87,17.87 0 0 1 17.61,-14.84 h 0.13 a 17.87,17.87 0 0 1 17.64,15.06 40.53,40.53 0 0 1 -8.23,2.89 z m 11,-4.36 A 20.88,20.88 0 0 0 49.91,68.82 h -0.13 a 20.88,20.88 0 0 0 -20.39,16.44 41.06,41.06 0 0 1 -6.31,-4.56 9.39,9.39 0 0 0 5.49,-8.55 9.28,9.28 0 0 0 -0.3,-2.34 l 0.21,-0.23 0.42,-0.44 0.53,-0.53 0.44,-0.42 0.56,-0.5 0.45,-0.39 0.59,-0.48 0.46,-0.36 0.63,-0.47 0.45,-0.33 0.68,-0.46 0.44,-0.29 0.78,-0.47 0.38,-0.22 q 0.59,-0.33 1.19,-0.64 a 29,29 0 0 1 10.68,-3.07 c 0.93,-0.08 1.79,-0.12 2.61,-0.12 1,0 2,0 3,0.15 a 29.24,29.24 0 0 1 18.63,9.37 9.28,9.28 0 0 0 -0.28,2.23 9.39,9.39 0 0 0 5.7,8.64 41.06,41.06 0 0 1 -6.48,4.63 z m 9,-7 A 6.4,6.4 0 0 1 75,75.31 c -1.59,-2.12 -1.25,-5.38 0.93,-7.63 l 0.26,-0.25 a 1.87,1.87 0 0 1 0.39,-0.34 6,6 0 0 1 6.07,-1.09 6.47,6.47 0 0 1 3.6,2.79 41.06,41.06 0 0 1 -6.95,9.64 z M 87.67,65.7 A 9.4,9.4 0 0 0 72.9,67 32.19,32.19 0 0 0 66.22,61.81 l 0.25,-0.34 0.28,-0.37 0.44,-0.53 0.28,-0.33 c 0.18,-0.2 0.36,-0.38 0.54,-0.57 l 0.23,-0.24 q 0.4,-0.39 0.82,-0.76 l 0.18,-0.15 c 0.22,-0.19 0.45,-0.38 0.68,-0.56 l 0.33,-0.24 0.57,-0.41 0.39,-0.25 0.55,-0.34 0.42,-0.23 0.56,-0.3 0.44,-0.21 0.57,-0.26 0.46,-0.19 0.58,-0.22 0.47,-0.16 0.6,-0.18 0.47,-0.13 0.67,-0.14 0.46,-0.1 0.67,-0.11 0.44,-0.07 0.75,-0.08 h 0.38 c 0.38,0 0.75,0 1.13,0 0.38,0 0.83,0 1.25,0 h 0.12 c 0.39,0 0.78,0.07 1.17,0.13 h 0.17 q 0.57,0.09 1.12,0.21 h 0.18 q 0.55,0.13 1.1,0.29 l 0.17,0.05 c 0.37,0.11 0.73,0.24 1.09,0.37 l 0.13,0.05 c 0.37,0.15 0.74,0.3 1.1,0.47 v 0 q 0.55,0.26 1.08,0.56 h 0.07 c 0.23,0.13 0.45,0.27 0.67,0.41 a 40.5,40.5 0 0 1 -2.57,8.88 z m 2.37,-12.32 -0.23,-0.11 q -0.52,-0.25 -1.06,-0.48 l -0.2,-0.08 q -0.5,-0.2 -1,-0.38 L 87.4,52.28 C 87.03,52.16 86.66,52.05 86.28,51.94 L 86,51.93 c -0.38,-0.1 -0.76,-0.19 -1.15,-0.26 h -0.14 q -0.54,-0.1 -1.09,-0.18 H 83.41 Q 82.83,51.42 82.24,51.38 H 82 c -0.41,0 -0.82,0 -1.23,0 -0.41,0 -0.89,0 -1.34,0 h -0.44 l -0.88,0.09 -0.52,0.08 -0.79,0.13 -0.54,0.12 -0.74,0.17 -0.55,0.16 -0.71,0.22 -0.55,0.19 -0.68,0.26 -0.53,0.2 -0.66,0.3 -0.53,0.26 -0.64,0.34 -0.51,0.29 -0.62,0.38 -0.49,0.32 -0.6,0.42 -0.47,0.35 -0.58,0.47 -0.4,0.37 -0.56,0.52 -0.4,0.38 c -0.19,0.19 -0.37,0.38 -0.55,0.58 l -0.35,0.38 c -0.2,0.23 -0.39,0.46 -0.58,0.69 l -0.27,0.32 q -0.4,0.52 -0.77,1.06 a 32,32 0 0 0 -8.3,-2.6 29.46,29.46 0 0 1 25.58,-15 29.14,29.14 0 0 1 9.69,1.66 41,41 0 0 1 0.36,5.51 c 0,1.27 -0.06,2.52 -0.17,3.76 z"
       id="path4"
       inkscape:connector-curvature="0" />
  </g>
</svg>
