<svg width="89.649" height="89.999" enable-background="new 0 0 100 100" version="1.1" viewBox="0 0 89.649 89.999" xml:space="preserve" xmlns="http://www.w3.org/2000/svg"><g transform="translate(-5.175 -4.9999)">
    <path id="elem1" d="m34.525 78.563c-5.68-11.411-6.874-24.316-3.383-35.791-3.845-0.714-7.779-0.856-11.512-0.416-6.197 21.022 0.969 41.321 18.085 50.931 3.373 0.969 6.835 1.544 10.315 1.712-5.243-3.755-10.078-9.553-13.505-16.436z"/>
    <path id="elem2" d="m61.938 83.89c2.776 2.778 5.958 4.87 9.38 5.945 3.874-2.049 7.51-4.699 10.767-7.956 6.976-6.976 11.377-15.838 12.739-25.436-5.441 12.991-17.226 23.083-32.886 27.447z"/>
    <path id="elem3" d="m66.095 92.173c-3.544-1.864-6.767-4.606-9.506-7.94-0.149-0.14-0.279-0.301-0.383-0.482-3.265-4.106-5.811-9.043-7.367-14.276-0.074-0.162-0.136-0.331-0.168-0.514-4e-3 -0.023-1e-3 -0.046-5e-3 -0.069-1.686-5.975-2.07-12.297-0.754-18.177-3.5-3.204-7.931-5.536-12.687-6.958-4.477 14.227-0.076 26.652 3.053 32.938 4.418 8.876 11.269 15.693 17.977 17.949 3.344-0.448 6.645-1.274 9.84-2.471z"/>
    <path id="elem4" d="m33.532 8.186c13.961-1.769 28.581 3.396 40.179 14.769 1.026-3.894 1.201-7.708 0.456-11.089-12.262-7.693-27.442-8.924-40.635-3.68z"/>
    <path id="elem5" d="m82.085 18.166c-1.055-1.055-2.152-2.043-3.282-2.971 0.273 6.454-1.835 13.536-6.107 20.113-5.169 7.959-12.663 13.863-20.709 16.377-1.023 4.627-0.829 9.623 0.314 14.448 14.554-3.24 23.125-13.246 27.002-19.097 5.489-8.282 7.967-17.644 6.548-24.585-1.159-1.492-2.408-2.928-3.766-4.285z"/>
    <path id="elem6" d="m53.492 70.177c1.305 3.687 3.149 7.166 5.397 10.177 21.348-5.155 35.36-21.567 35.065-41.25-0.838-3.382-2.074-6.639-3.668-9.725-0.621 6.435-3.229 13.545-7.489 19.972-7.042 10.625-17.622 18.111-29.305 20.826z"/>
    <path id="elem7" d="m33.104 26.336c-9.944-0.615-19.313 1.935-24.607 6.659-1.267 3.106-2.177 6.357-2.721 9.703 3.381-2.138 7.362-3.558 11.614-4.267 0.197-0.063 0.403-0.091 0.614-0.093 5.197-0.779 10.757-0.516 16.076 0.755 0.176 0.017 0.353 0.047 0.526 0.111 0.022 8e-3 0.041 0.021 0.063 0.03 6.018 1.527 11.686 4.356 16.119 8.436 4.436-1.394 8.691-3.977 12.393-7.456-10.088-11.019-23.062-13.444-30.077-13.878z"/>
    <path id="elem8" d="m22.339 85.393c-8.506-11.204-11.341-26.439-7.296-42.164-3.788 1.014-7.186 2.72-9.827 5.142-0.02 0.549-0.041 1.099-0.041 1.652 0 12.034 4.687 23.348 13.195 31.857 1.267 1.266 2.597 2.43 3.969 3.513z"/>
    <path id="elem9" d="m33.362 22.153c12.744 0.787 24.536 6.222 32.73 15.009 1.105-1.296 2.141-2.676 3.089-4.137 1.193-1.837 2.199-3.732 3.01-5.642-15.108-15.899-36.285-19.853-53.178-9.828-0.213 0.205-0.432 0.4-0.642 0.61-2.3 2.3-4.311 4.812-6.036 7.481 5.88-2.675 13.335-3.971 21.027-3.493z"/>
</g>
</svg>
