<?xml version="1.0" encoding="UTF-8" standalone="no"?>
<svg xmlns="http://www.w3.org/2000/svg" xmlns:xlink="http://www.w3.org/1999/xlink">
    <symbol viewBox="0 0 89.54 89.54" id="manga" xmlns="http://www.w3.org/2000/svg">
        <path d="M44.77 0a44.77 44.77 0 1044.77 44.77A44.82 44.82 0 0044.77 0zm0 3.93a40.92 40.92 0 0139.88 32 32.32 32.32 0 00-37.88 16.31c-.74-.05-1.48-.08-2.21-.08s-1.21 0-1.85.06A32.48 32.48 0 0013.93 34.6a32.15 32.15 0 00-9 1.29A40.92 40.92 0 0144.77 3.92zM3.92 44.77a41 41 0 01.38-5.53 29.13 29.13 0 019.63-1.64 29.47 29.47 0 0125.56 15 31.94 31.94 0 00-8.36 2.52q-.38-.54-.78-1.06l-.25-.29c-.2-.24-.39-.48-.6-.71l-.34-.36c-.19-.2-.37-.4-.57-.59l-.39-.36-.57-.52-.42-.35-.59-.47-.45-.33-.6-.42-.48-.31-.62-.38-.5-.28-.64-.34-.56-.31-.66-.3-.53-.22-.68-.26-.54-.19-.71-.21-.54-.15-.74-.17-.54-.12-.78-.13-.51-.08-.88-.09h-3.19q-.59 0-1.17.11h-.21q-.55.07-1.09.18h-.14c-.38.08-.76.16-1.14.26l-.25.1c-.38.1-.75.21-1.12.33l-.15.05q-.51.17-1 .38l-.19.08q-.54.22-1.06.47l-.22.11-.62.32a35.75 35.75 0 01-.19-3.74zm3.15 15.72a40.5 40.5 0 01-2.55-8.72c.22-.14.44-.28.67-.41h.08q.52-.29 1.06-.55c.36-.17.72-.32 1.09-.46l.13-.05c.36-.13.72-.26 1.08-.37l.18-.05q.54-.16 1.09-.28h.19q.55-.12 1.11-.2h.17c.38-.05.77-.1 1.16-.13h2.85l.74.07.43.07.66.11.46.1.63.15h.47l.6.18.45.16.59.22.44.18.57.26.43.2.57.3.4.22.58.35.36.23.62.43.28.2q.44.33.86.69.41.35.81.74l.25.26.52.54.28.32.44.52.28.36.26.36c-.37.21-.73.44-1.1.66l-.29.18-.94.63-.24.16q-.55.39-1.09.81l-.23.19-.87.71-.26.22q-.51.44-1 .91l-.16.15-.55.53a9.38 9.38 0 00-14.56-1.15zm1.42 3a6.36 6.36 0 015.44-3 6.41 6.41 0 011.48 12.64 41.06 41.06 0 01-6.92-9.6zm42.57 21.6a41 41 0 01-12.89-.05v-.61a6.4 6.4 0 014.87-6.22h.21a5.79 5.79 0 012.79 0h.21a6.35 6.35 0 014.84 6.88zm3-.59v-.07a9.4 9.4 0 00-7.75-9.26 9.6 9.6 0 00-1.19-.13h-1.03a9.6 9.6 0 00-1.19.13 9.4 9.4 0 00-7.75 9.26 40.53 40.53 0 01-8.2-3 17.87 17.87 0 0117.61-14.84h.13a17.87 17.87 0 0117.64 15.06 40.53 40.53 0 01-8.23 2.89zm11-4.36a20.88 20.88 0 00-20.38-16.55h-.13a20.88 20.88 0 00-20.39 16.44 41.06 41.06 0 01-6.31-4.56 9.39 9.39 0 005.49-8.55 9.28 9.28 0 00-.3-2.34l.21-.23.42-.44.53-.53.44-.42.56-.5.45-.39.59-.48.46-.36.63-.47.45-.33.68-.46.44-.29.78-.47.38-.22q.59-.33 1.19-.64a29 29 0 0110.68-3.07c.93-.08 1.79-.12 2.61-.12 1 0 2 0 3 .15a29.24 29.24 0 0118.63 9.37 9.28 9.28 0 00-.28 2.23 9.39 9.39 0 005.7 8.64 41.06 41.06 0 01-6.48 4.63zm9-7a6.4 6.4 0 01-4.29-3.06c-1.59-2.12-1.25-5.38.93-7.63l.26-.25a1.87 1.87 0 01.39-.34 6 6 0 016.07-1.09 6.47 6.47 0 013.6 2.79 41.06 41.06 0 01-6.95 9.64zm8.38-12.67a9.4 9.4 0 00-14.77 1.3 32.19 32.19 0 00-6.68-5.19l.25-.34.28-.37.44-.53.28-.33c.18-.2.36-.38.54-.57l.23-.24q.4-.39.82-.76l.18-.15c.22-.19.45-.38.68-.56l.33-.24.57-.41.39-.25.55-.34.42-.23.56-.3.44-.21.57-.26.46-.19.58-.22.47-.16.6-.18.47-.13.67-.14.46-.1.67-.11.44-.07.75-.08h2.88c.39 0 .78.07 1.17.13h.17q.57.09 1.12.21h.18q.55.13 1.1.29l.17.05c.37.11.73.24 1.09.37l.13.05c.37.15.74.3 1.1.47q.55.26 1.08.56h.07c.23.13.45.27.67.41a40.5 40.5 0 01-2.57 8.88zm2.37-12.32l-.23-.11q-.52-.25-1.06-.48l-.2-.08q-.5-.2-1-.38l-.15-.05c-.37-.12-.74-.23-1.12-.34l-.28-.01c-.38-.1-.76-.19-1.15-.26h-.14q-.54-.1-1.09-.18h-.21q-.58-.07-1.17-.11h-3.25l-.88.09-.52.08-.79.13-.54.12-.74.17-.55.16-.71.22-.55.19-.68.26-.53.2-.66.3-.53.26-.64.34-.51.29-.62.38-.49.32-.6.42-.47.35-.58.47-.4.37-.56.52-.4.38c-.19.19-.37.38-.55.58l-.35.38c-.2.23-.39.46-.58.69l-.27.32q-.4.52-.77 1.06a32 32 0 00-8.3-2.6 29.46 29.46 0 0125.58-15 29.14 29.14 0 019.69 1.66 41 41 0 01.36 5.51c0 1.27-.06 2.52-.17 3.76z" data-name="Your Icon"/>
    </symbol>
    <symbol viewBox="-0.18 0 90 90" id="volley" xmlns="http://www.w3.org/2000/svg">
        <path d="M29.35 73.563c-5.68-11.41-6.874-24.316-3.383-35.79-3.845-.715-7.779-.857-11.512-.417-6.197 21.022.969 41.321 18.085 50.931A45.27 45.27 0 0042.855 90c-5.243-3.755-10.078-9.553-13.505-16.436zM56.763 78.89c2.776 2.778 5.958 4.87 9.38 5.945A44.887 44.887 0 0076.91 76.88c6.976-6.976 11.377-15.838 12.739-25.436-5.441 12.991-17.226 23.083-32.886 27.447z"/>
        <path d="M60.92 87.173c-3.544-1.864-6.767-4.606-9.506-7.94a2.091 2.091 0 01-.383-.482c-3.265-4.106-5.811-9.043-7.367-14.276a2.107 2.107 0 01-.168-.514c-.004-.023-.001-.046-.005-.069-1.686-5.975-2.07-12.297-.754-18.177-3.5-3.204-7.931-5.536-12.687-6.958-4.477 14.227-.076 26.652 3.053 32.938 4.418 8.876 11.269 15.693 17.977 17.95a45.126 45.126 0 009.84-2.472zM28.357 3.186c13.961-1.769 28.581 3.396 40.179 14.77 1.026-3.895 1.201-7.709.456-11.09C56.73-.827 41.55-2.058 28.357 3.186z"/>
        <path d="M76.91 13.166a45.24 45.24 0 00-3.282-2.97c.273 6.453-1.835 13.535-6.107 20.112-5.169 7.96-12.663 13.863-20.709 16.377-1.023 4.627-.829 9.623.314 14.448 14.554-3.24 23.125-13.246 27.002-19.097 5.489-8.282 7.967-17.644 6.548-24.585a45.51 45.51 0 00-3.766-4.285z"/>
        <path d="M48.317 65.177c1.305 3.687 3.149 7.166 5.397 10.177 21.348-5.155 35.36-21.567 35.065-41.25a44.51 44.51 0 00-3.668-9.725c-.621 6.435-3.229 13.545-7.489 19.972C70.58 54.976 60 62.462 48.317 65.177zM27.929 21.336c-9.944-.615-19.313 1.935-24.607 6.66a44.627 44.627 0 00-2.721 9.702c3.381-2.138 7.362-3.558 11.614-4.267.197-.063.403-.09.614-.093 5.197-.779 10.757-.516 16.076.755.176.017.353.047.526.111.022.008.041.021.063.03 6.018 1.527 11.686 4.356 16.119 8.436 4.436-1.394 8.691-3.977 12.393-7.456C47.918 24.195 34.944 21.77 27.929 21.336z"/>
        <path d="M17.164 80.393C8.658 69.19 5.823 53.954 9.868 38.23 6.08 39.243 2.682 40.95.041 43.371c-.02.55-.041 1.1-.041 1.652C0 57.057 4.687 68.371 13.195 76.88a45.36 45.36 0 003.969 3.513zM28.187 17.153c12.744.787 24.536 6.222 32.73 15.01a39.617 39.617 0 003.089-4.138 36.764 36.764 0 003.01-5.642C51.908 6.484 30.731 2.53 13.838 12.555c-.213.205-.432.4-.642.61a45.472 45.472 0 00-6.036 7.481c5.88-2.675 13.335-3.97 21.027-3.493z"/>
    </symbol>
    <symbol viewBox="-59.9 0 179.8 47.57" id="ecran" xmlns="http://www.w3.org/2000/svg">
        <path d="M0 0h60v1.4H0zM0 36.947h60v1.4H0zM0 1.4h1.4v35.547H0zM58.6 1.4H60v35.547h-1.4z"/>
        <path d="M27 38.284h6v7.884h-6zM15 46.172h30v1.4H15z"/>
    </symbol>
</svg>